/* XPM */
static char *a2f955740e6d4bdaf972c5859557b53dWGX1qwz8D06Qi77I[] = {
/* columns rows colors chars-per-pixel */
"50 50 174 2 ",
"   c None",
".  c #E73A01",
"X  c #FF3501",
"o  c #FF3A05",
"O  c #FF3C0A",
"+  c #F43801",
"@  c #8B4E00",
"#  c #9B4C01",
"$  c #8B5001",
"%  c #985D01",
"&  c #AA4F09",
"*  c #B54800",
"=  c #A75F00",
"-  c #AB5F00",
";  c #826D0B",
":  c #9A6705",
">  c #84770E",
",  c #997E0C",
"<  c #A56101",
"1  c #AA6100",
"2  c #A36B05",
"3  c #AF6A00",
"4  c #A17006",
"5  c #B27D0C",
"6  c #B46B10",
"7  c #DF4C05",
"8  c #E54200",
"9  c #EE4B09",
"0  c #F34407",
"q  c #F14608",
"w  c #FF400F",
"e  c #F04808",
"r  c #FE4001",
"t  c #E15309",
"y  c #FF520C",
"u  c #FF4516",
"i  c #FF4518",
"p  c #FF4A18",
"a  c #FE5414",
"s  c #FE5C1D",
"d  c #FF5319",
"f  c #D3610D",
"g  c #C57919",
"h  c #F77B04",
"j  c #FC6C1B",
"k  c #FF611D",
"l  c #FB7218",
"z  c #FF4E22",
"x  c #FF5224",
"c  c #FF5A28",
"v  c #F85B24",
"b  c #E56929",
"n  c #FB6425",
"m  c #E97A2B",
"M  c #FF7123",
"N  c #FF7229",
"B  c #FF7D30",
"V  c #7DA41C",
"C  c #79B422",
"Z  c #77BF28",
"A  c #75BA24",
"S  c #6EC529",
"D  c #6DC92B",
"F  c #71C127",
"G  c #71CA2C",
"H  c #7BC827",
"J  c #73CE32",
"K  c #76D035",
"L  c #7CD63D",
"P  c #7BD83E",
"I  c #97830E",
"U  c #8F8710",
"Y  c #918B11",
"T  c #8B9215",
"R  c #8C9A16",
"E  c #859F19",
"W  c #A99814",
"Q  c #80A81D",
"!  c #96A527",
"~  c #84BC2D",
"^  c #8BB52A",
"/  c #9CAF32",
"(  c #87BF31",
")  c #8DBE33",
"_  c #91BF35",
"`  c #96BB38",
"'  c #ACA635",
"]  c #C3860B",
"[  c #F49C08",
"{  c #D4A301",
"}  c #D9A400",
"|  c #F3A10A",
" . c #F1AC06",
".. c #EEBF01",
"X. c #F0BF03",
"o. c #F3BC1A",
"O. c #DF9A3E",
"+. c #FF9D20",
"@. c #FF942B",
"#. c #FE9D2E",
"$. c #FF8C3B",
"%. c #FF8435",
"&. c #E7913C",
"*. c #FF9630",
"=. c #FF9A31",
"-. c #FCAC2A",
";. c #F5BB24",
":. c #FFBE22",
">. c #E8A53C",
",. c #FFA733",
"<. c #FFA834",
"1. c #FFAC3E",
"2. c #FFB030",
"3. c #F7B937",
"4. c #9DC51A",
"5. c #84CA29",
"6. c #8BC823",
"7. c #93CB28",
"8. c #8DC337",
"9. c #8BC538",
"0. c #87C132",
"q. c #90C036",
"w. c #A6CC26",
"e. c #ACCE27",
"r. c #BCCE26",
"t. c #CDC30E",
"y. c #DBC006",
"u. c #EFC001",
"i. c #E9C60C",
"p. c #F0C000",
"a. c #F4C50B",
"s. c #F9CC16",
"d. c #F5C91F",
"f. c #FEC11E",
"g. c #FED21F",
"h. c #C3CD22",
"j. c #FFC222",
"k. c #F9CB21",
"l. c #E6D224",
"z. c #F1D222",
"x. c #FFD422",
"c. c #E39D41",
"v. c #FF9741",
"b. c #FFAE42",
"n. c #FFA74E",
"m. c #FFA84D",
"M. c #FFB047",
"N. c #FFB24B",
"B. c #FFBF44",
"V. c #FFAD50",
"C. c #FFB655",
"Z. c #FFB856",
"A. c #FFB758",
"S. c #FFBA5B",
"D. c #FFBD63",
"F. c #FFC067",
"G. c #FFC26C",
"H. c #FFC774",
"J. c #FFC877",
"K. c #FFCA7B",
"L. c #FFCD80",
"P. c #FFD793",
"I. c #FFDB9B",
"U. c #FFDFA3",
"Y. c #FFE5AD",
"T. c #FFE3AA",
"R. c #FFE0A5",
"E. c #FFE7B1",
"W. c #FFE8B4",
"Q. c #FFEBB9",
"!. c #FFEDBC",
"~. c #FFF1C5",
"^. c #FFF6CD",
"/. c #FFF8D3",
/* pixels */
"                                                                                                    ",
"                                                                                                    ",
"                                      C.C.C.C.C.C.C.C.C.C.C.C.                                      ",
"                          C.C.C.C.C.C.C.C.C.C.C.C.C.C.C.C.C.C.C.C.C.C.C.C.                          ",
"                    C.C.C.C.C.C.C.C.C.C.C.C.C.C.C.C.C.C.C.Z.C.C.C.C.C.C.C.C.C.C.                    ",
"              ,.1.N.C.C.D.J.Z.C.C.C.C.C.C.C.C.C.H.H.C.C.C.C.C.C.C.C.C.S.G.S.C.C.C.C.C.              ",
"          <.,.1.C.C.C.D.W.W.S.C.C.C.C.C.C.C.C.S.Y.E.S.C.C.C.C.C.C.C.C.D.Q.Y.H.C.C.C.C.C.C.          ",
"        <.<.<.N.C.C.C.P./.Y.S.C.C.C.C.C.C.C.C.G.~.~.G.C.C.C.C.C.C.C.C.S.T./.U.C.C.C.C.C.C.C.        ",
"      <.,.,.M.C.C.C.C.J.Y.K.C.C.C.C.C.C.C.C.C.D.R.R.S.C.C.C.C.C.C.C.C.C.G.U.K.C.C.C.C.C.C.C.C.      ",
"    ,.,.,.<.N.C.C.C.C.C.S.C.C.C.C.C.C.C.C.C.C.C.S.Z.C.C.C.C.C.C.C.C.C.C.C.C.C.C.C.C.C.C.C.C.C.C.    ",
"  ,.,.,.,.1.C.C.C.C.C.C.C.C.C.C.C.C.D.G.C.C.C.C.C.C.C.C.C.C.G.S.C.C.C.C.C.C.C.C.C.C.C.C.C.C.C.C.C.  ",
"  ,.,.,.,.b.C.C.C.C.C.C.C.C.C.C.Z.S.T.Y.S.C.C.C.C.C.C.C.C.D.W.R.S.C.C.C.C.C.C.C.C.C.Z.C.C.C.C.C.C.  ",
",.,.,.,.,.b.C.C.C.C.C.C.C.C.C.C.C.J.^.Q.S.C.C.C.C.C.C.C.C.S.Q.^.L.C.C.C.C.C.C.C.C.C.C.C.C.C.C.C.C.C.",
",.,.,.,.,.b.C.C.C.C.C.C.C.C.C.C.C.H.Q.I.C.C.C.C.C.C.C.C.C.Z.P.Q.H.C.C.C.C.C.C.C.C.C.C.C.C.C.C.C.C.C.",
",.,.,.,.,.<.M.C.C.C.C.C.C.C.C.C.C.C.D.S.C.C.C.C.C.C.C.C.C.C.S.D.C.C.C.C.C.C.C.C.C.C.C.C.Z.C.C.Z.C.C.",
",.,.,.,.,.,.<.1.b.1.1.1.b.1.1.1.1.1.1.1.b.1.1.1.1.b.1.1.1.1.1.1.b.1.1.1.1.b.1.1.1.1.b.b.1.1.1.1.1.1.",
",.,.,.,.<.<.<.<.,.,.<.<.,.<.,.,.,.<.<.<.,.,.,.<.<.<.<.<.<.<.<.,.,.,.,.,.,.,.,.,.,.<.,.,.,.,.,.,.,.,.",
"  ,.,.#.@.@.*.@.*.=.-.-.-.-.2.<.-.2.2.<.2.<.-.2.-.,.*.=.*.*.*.*.=.@.=.@.*.=.=.@.=.@.*.=.*.@.=.,.,.  ",
"      o o u x c x n | p.....s.x.x.x.x.x.x.x.x.x.:.M x x c x x c x c x x x x c x x x x c x c x       ",
"    X X X w z x x z v | u...u.s.x.x.x.x.x.x.x.j.M z x x d z x x x x x x x x x x x x z x x x x z     ",
"    X X X X p x z x z s | u.u.u.s.x.x.x.x.x.:.M z z z z z z x z z z z z z x x z x x x x z x x z     ",
"    X X X X X w i i p i a [ ..u...s.x.x.x.f.j i i u i i i i i i u i i u i i i i i i i p i i i i     ",
"    0 X X X X X X X X X X o h  .X...a.f.+.y + X X X X X X X X X X X X X X X X X X X X X X X X 0     ",
"    9.g 9 0 0 0 0 0 X X X X X s j j j n n 9 9 9 9 9 9 9 e 9 9 9 9 9 9 0 9 0 q q 0 e 0 0 0 9 g 8.    ",
"  L L 9.9.9.q.q.~ ^ g + X X O z z b ' 9.( ~ 0.9.9.9.9.8.9.9.8.8.~ ~ 0.8.8.) q.8._ ) ) ) ` 9.L L L   ",
"  K L L P P P K D D A t X X X z x ' P D D D D J L L P L P L K D D D J L L L P P L D D J L L L L K   ",
"  G J L L J D D A Q C f X X X z v / D D H 6.G D J L L L L J D H 7.5.D G K L L L G D D D G K K J G   ",
"  D D G D D S E 4 1 2 7 X X O z v ! D 4.....t.6.D D J J D D 7.l.g.l.e.G D G J G Z T , R S D D D D   ",
"    S D D C I 1 1 1 - 8 O O p z x ! T { X...X.i.w.D D D D w.z.x.x.x.d.W C D D D Y 1 - 1 , A S D     ",
"      ; > 2 < < < = = 8 i x x x x 6 % 3 } ......i.h.5.5.r.x.x.x.x.d.] = : T V I < = = = = : ;       ",
"      @ @ @ $ $ @ # * + i z x z x & $ @ % { p...X.a.z.z.x.x.x.x.k.5 @ $ $ $ $ $ @ $ $ $ @ @ @       ",
"        $ $ $ $ # . X X i z z x z & $ $ $ % { u.....a.g.x.x.x.k.5 $ $ $ $ $ $ $ $ $ $ $ $ @         ",
"    C.C.c.O.O.O.m X X X i z x x n c.c.O.O.O.>.o.......a.x.x.x.3.O.O.O.O.O.O.O.O.O.O.O.O.O.c.C.C.    ",
"  C.C.C.C.Z.S.Z.$.o X X p x x $.m.C.C.C.A.C.A.N.o.....u.u.g.B.C.S.A.Z.Z.Z.S.Z.Z.Z.Z.Z.Z.Z.C.C.C.C.  ",
"b.C.C.C.C.C.C.Z.$.o X X i z c n.S.C.C.C.C.C.C.C.C.3.;.;.3.N.C.C.C.C.C.C.C.C.C.C.C.C.C.C.C.C.C.C.C.M.",
"1.C.C.C.C.C.C.Z.$.o X X w z c n.Z.C.C.C.C.C.C.C.C.C.C.C.A.C.C.C.C.C.C.C.C.C.C.C.C.C.C.C.C.C.C.C.C.b.",
"<.M.C.C.C.C.C.Z.$.X X X X i c m.C.C.C.C.C.C.C.C.C.C.C.C.C.C.C.C.C.C.C.C.C.C.C.C.C.C.C.C.C.C.C.C.N.<.",
",.1.N.C.C.C.C.Z.v.o X X X X d V.C.C.C.C.C.C.C.C.C.C.C.C.C.C.C.Z.C.C.C.C.C.C.C.C.C.C.C.C.C.C.C.C.<.,.",
"<.,.b.C.C.C.C.C.C.s X X X X B C.C.C.C.C.C.C.C.C.C.C.C.C.C.C.C.C.C.C.C.C.C.C.C.C.C.C.C.C.C.C.C.1.,.,.",
"  ,.,.b.C.C.C.C.C.m.N a s %.C.C.C.C.C.C.A.C.C.C.C.C.C.C.C.C.C.C.C.C.C.C.C.C.A.C.C.C.C.C.C.C.1.,.,.  ",
"  ,.,.,.1.N.C.C.C.C.C.C.C.C.C.C.C.C.C.C.C.C.C.C.C.C.C.C.C.C.C.C.C.C.C.C.C.C.C.C.C.C.C.C.C.1.,.,.,.  ",
"    ,.,.,.<.b.C.C.C.C.C.C.C.C.C.C.C.C.C.C.A.C.C.C.C.C.C.C.C.C.C.C.C.C.C.C.C.C.C.C.C.N.b.<.,.,.,.    ",
"      ,.,.,.,.<.1.M.N.C.A.A.C.C.A.C.C.S.C.C.A.C.C.A.C.A.A.C.A.C.A.C.A.C.C.C.C.C.M.1.<.,.,.,.,.      ",
"      ,.,.,.,.,.,.,.<.1.b.b.b.b.M.N.N.m.N.N.N.N.N.N.N.N.N.N.N.M.N.N.M.M.b.1.<.<.,.,.,.,.,.,.,.      ",
"          ,.,.,.,.,.,.,.,.,.,.,.,.,.,.,.,.,.,.,.<.<.,.,.<.<.<.<.<.<.,.,.,.,.,.,.,.,.,.,.,.          ",
"            ,.,.,.,.,.,.,.,.,.,.,.,.,.,.,.,.,.,.<.,.,.,.,.,.,.,.<.<.,.,.,.,.,.,.,.,.,.,.            ",
"                  ,.,.,.,.,.,.,.,.,.,.,.,.,.,.,.,.,.,.,.,.,.,.,.,.,.,.,.,.,.,.,.,.                  ",
"                        ,.,.,.,.,.,.,.<.,.,.,.<.,.,.,.,.,.,.,.,.,.,.,.,.,.,.                        ",
"                                                                                                    ",
"                                                                                                    "
};
