/* XPM */
static char *_80dd22a47a945deb56fd002423baab3OgjgkLL8DBBmM3zF[] = {
/* columns rows colors chars-per-pixel */
"50 50 132 2 ",
"   c None",
".  c #575656",
"X  c gray34",
"o  c #585858",
"O  c gray35",
"+  c #5A5A5A",
"@  c #636466",
"#  c #68696C",
"$  c #6A6C6E",
"%  c #76797D",
"&  c #E04652",
"*  c #E04753",
"=  c #E04854",
"-  c #E04955",
";  c #E04A56",
":  c #E04B57",
">  c #E04C58",
",  c #E04D59",
"<  c #E04D5A",
"1  c #E0505C",
"2  c #E0515D",
"3  c #E0525E",
"4  c #E0535F",
"5  c #E05360",
"6  c #E05460",
"7  c #E05561",
"8  c #E05865",
"9  c #E05A66",
"0  c #E05B67",
"q  c #E05B68",
"w  c #E05C69",
"e  c #E05D6A",
"r  c #E05E6A",
"t  c #E05E6B",
"y  c #E0616E",
"u  c #E06471",
"i  c #E06673",
"p  c #E06774",
"a  c #E06775",
"s  c #E06875",
"d  c #E0717F",
"f  c #E0727F",
"g  c #E07380",
"h  c #E07481",
"j  c #E07482",
"k  c #E07583",
"l  c #E07886",
"z  c #82868C",
"x  c #888C93",
"c  c #8F959C",
"v  c #9AA2AD",
"b  c #9DA5B1",
"n  c #9EA6B2",
"m  c #9EA7B3",
"M  c #A2ABB8",
"N  c #A3ACB9",
"B  c #A8B1BE",
"V  c #E0818F",
"C  c #E08391",
"Z  c #E08D9C",
"A  c #E08F9D",
"S  c #DF9CAB",
"D  c #E09AA9",
"F  c #DFA8B7",
"G  c #B6BFCA",
"H  c #DFB0C0",
"J  c #DFB1C0",
"K  c #DFB2C2",
"L  c #DFBDCD",
"P  c #DFBDCE",
"I  c #DFBECE",
"U  c #B6C0CB",
"Y  c #B7C0CB",
"T  c #B7C0CC",
"R  c #B7C1CC",
"E  c #DFC0D0",
"W  c #DFC1D1",
"Q  c #DFC2D2",
"!  c #DFC2D3",
"~  c #DFC3D4",
"^  c #DFCADB",
"/  c #DFCBDC",
"(  c #DFCCDC",
")  c #DFCCDD",
"_  c #DFCDDE",
"`  c #DFCFDF",
"'  c #C8D2DC",
"]  c #C9D3DD",
"[  c #DFCFE0",
"{  c #DFD0E1",
"}  c #DFD3E4",
"|  c #DFD7E8",
" . c #DFD8E9",
".. c #DFD8EA",
"X. c #DFD9EA",
"o. c #DFDAEB",
"O. c #DFDAEC",
"+. c #DFDBED",
"@. c #DFDCEE",
"#. c #C0DBFF",
"$. c #C1DBFF",
"%. c #C3DDFF",
"&. c #C7DFFF",
"*. c #DFDFF1",
"=. c #CCE2FF",
"-. c #DFE1F2",
";. c #DFE1F3",
":. c #DFE3F4",
">. c #DFE3F5",
",. c #D9E6F7",
"<. c #DFE4F5",
"1. c #DFE4F6",
"2. c #DFE6F8",
"3. c #DBE9FA",
"4. c #DFE8F9",
"5. c #DCE9FB",
"6. c #DFE8FA",
"7. c #DFE9FA",
"8. c #DFE9FB",
"9. c #D9EAFF",
"0. c #DCEAFC",
"q. c #DFEAFC",
"w. c #DFEBFD",
"e. c #DCECFF",
"r. c #DFECFE",
"t. c #DEECFF",
"y. c #DFEDFF",
"u. c #DFEEFF",
"i. c #DFEFFF",
"p. c #DFF0FF",
"a. c #DFF1FF",
"s. c #DFF2FF",
/* pixels */
"' ' ' ' ' ' ' ' ] Y N                                                                               ",
"' ' ' ' ' ' ' ' ] Y N                                                                               ",
"' ' ' ' ' ' ' ' ' R N                                                                               ",
"' ' ' ' ' ' ' ' ' G M                                                                               ",
"' ' ' ' ' ' ' ' ] R N                                                                               ",
"' ' ' ' ' ' ' ' ' Y M                                                                               ",
"' ' ' ' ' ' ' ' ] R M             y.y.y.y.y.y.y.y.y.y.y.y.y.y.y.y.y.y.y.y.y.y.y.y.y.y.y.y.y.y.=.%.  ",
"' ' ' ' ' ' ' ' ' Y M           y.y.y.y.y.y.y.y.y.y.y.y.y.y.y.y.y.y.y.y.y.y.y.y.y.y.y.y.y.y.y.9.%.$.",
"' ' ' ' ' ' ' ' ' R M           y.y.y.y.y.y.y.y.y.y.y.y.y.y.y.y.y.y.y.y.y.y.y.y.y.y.y.y.y.y.y.t.&.#.",
"' ' ' ' ' ' ' ' ] R b # O + o z 5.y.y.y.y.y.y.y.y.y.y.y.y.y.y.y.y.y.y.y.y.y.y.y.y.y.y.y.y.y.y.t.&.#.",
"' ' ' ' ' ' ' ' ' R v @ O O O % ,.y.y.y.y.y.y.y.y.y.y.y.y.y.y.y.p.p.y.y.y.y.y.y.y.y.y.y.y.y.y.t.&.#.",
"' ' ' ' ' ' ' ' ] R v @ O O O % ,.y.y.y.y.y.y.y.y.y.y.y.y.-.X.X. . . . .1.y.y.y.y.y.y.y.y.y.y.t.&.#.",
"' ' ' ' ' ' ' ' ] R b         c 5.y.y.y.y.y.y.y.y.y.y.y.+.j q w r r 0 0 V 1.y.y.y.y.y.y.y.y.y.t.&.#.",
"' ' ' ' ' ' ' ' ' R N           y.y.y.y.y.y.y.y.y.y.y.p.( 2 * = = = = & r  .y.y.y.y.y.y.y.y.y.t.&.#.",
"' ' ' ' ' ' ' ' ' R N           y.y.y.y.y.y.y.y.y.y.y.p./ 6 = = - - - = r  .y.y.y.y.y.y.y.y.y.t.&.#.",
"' ' ' ' ' ' ' ' ] R M           y.y.y.y.y.y.y.y.y.y.y.y./ 6 = = - - - - t o.y.y.y.y.y.y.y.y.y.t.&.#.",
"' ' ' ' ' ' ' ' ' Y M           y.y.y.y.y.y.y.y.y.y.y.p.( 2 = = - - - = r  .y.y.y.y.y.y.y.y.y.t.&.#.",
"' ' ' ' ' ' ' ' ] Y M           y.y.y.y.y.y.y.y.p.y.y.p.( 6 = = - - - = r @.y.y.p.y.y.y.y.y.y.t.&.#.",
"' ' ' ' ' ' ' ' ] R M           y.y.y.y.y.y.2.-.-.;.;.;.~ 2 = = - - - = r { :.:.-.-.:.5.y.y.y.t.&.#.",
"' ' ' ' ' ' ' ' ' Y M           y.y.y.y.y.| l s s a a s y , = , - - - - > u p p s s i V :.y.y.t.&.#.",
"' ' ' ' ' ' ' ' ] Y N           y.y.y.y.p.I , = = = = = * = = = - - - - = = = - * * = 6 { y.y.t.&.#.",
"' ' ' ' ' ' ' ' ] R M           y.y.y.y.p.I , = = = = = = = = , - - - - - - - - = = = 6 { p.y.t.&.#.",
"' ' ' ' ' ' ' ' ' Y M           y.y.y.y.p.I , = = , = = = = = = - - - - - - - - = , = 6 [ p.y.y.&.#.",
"' ' ' ' ' ' ' ' ] R b $ O O o x 5.y.y.y.p.I , = = = = , = = , = - - - - - - - - = = = 6 [ y.y.y.&.#.",
"' ' ' ' ' ' ' ' ] R v @ O O o % ,.y.y.y.p.I , = = = : = = = : = - - - - - - - - - - = 7 [ p.y.t.&.#.",
"' ' ' ' ' ' ' ' ] R v @ O O O % ,.y.y.y.p.I , = = , = = : = : = - - - - - - - - - - = 6 ` y.y.t.&.#.",
"' ' ' ' ' ' ' ' ] R b $ O + o x 5.y.y.y.y.^ 9 , , , , < , = = = - - - - > , , , , , > u  .y.y.t.&.#.",
"' ' ' ' ' ' ' ' ] Y N           y.y.y.y.y.q.( W W W W W F 2 = : - - - = 8 J E E E E E { y.y.y.t.&.#.",
"' ' ' ' ' ' ' ' ] Y M           y.y.y.y.y.y.p.p.p.p.p.p.[ 5 = = - - - = t @.p.p.p.p.p.y.y.y.y.t.&.#.",
"' ' ' ' ' ' ' ' ] Y M           y.y.y.y.y.y.y.y.y.y.y.p./ 5 = = - - - = t o.y.y.y.y.y.y.y.y.y.t.&.#.",
"' ' ' ' ' ' ' ' ] Y N           y.y.y.y.y.y.y.y.y.y.y.p.( 6 = = - - = = t o.p.y.y.y.y.y.y.y.y.t.&.#.",
"' ' ' ' ' ' ' ' ] Y M           y.y.y.y.y.y.y.y.y.y.y.y./ 6 = = - - - = t o.y.y.y.y.y.y.y.y.y.y.&.#.",
"' ' ' ' ' ' ' ' ] R M           y.y.y.y.y.y.y.y.y.y.y.p.( 2 = = : : = = w X.y.y.y.y.y.y.y.y.y.y.&.#.",
"' ' ' ' ' ' ' ' ' Y N           y.y.y.y.y.y.y.y.y.y.y.p.} w = = = = = = s *.p.y.y.y.y.y.y.y.y.y.&.#.",
"' ' ' ' ' ' ' ' ] Y N           y.y.y.y.y.y.y.y.y.y.y.y.7.~ J J J J K J ^ y.y.y.y.y.y.y.y.y.y.t.&.#.",
"' ' ' ' ' ' ' ' ] R N           y.y.y.y.y.y.y.y.y.y.y.y.y.p.p.p.p.p.p.p.p.y.y.p.y.y.y.y.y.y.y.t.&.#.",
"' ' ' ' ' ' ' ' ' R N           y.y.y.y.y.y.q.q.q.q.q.q.q.q.7.7.q.q.7.7.7.y.7.7.q.q.q.q.t.y.y.y.&.#.",
"' ' ' ' ' ' ' ' ] R b         c 5.y.y.y.;.A j j j j j j j f k k j j j j j j j j j j j g S 5.y.t.&.#.",
"' ' ' ' ' ' ' ' ] R v @ O O O % ,.y.y.y.<.Z f f f f f f f f f f j f f f j f f f f g f f D q.y.t.&.#.",
"' ' ' ' ' ' ' ' ] R v @ O O o % ,.y.y.y.y.y.2.q.q.q.q.q.q.q.q.4.q.q.q.4.q.4.q.q.q.q.q.q.q.y.y.t.&.#.",
"' ' ' ' ' ' ' ' ] R b # O + o z 5.y.y.y.y.y.y.y.y.y.y.y.y.y.y.y.y.y.y.y.y.y.y.y.y.y.y.y.y.y.y.t.&.#.",
"' ' ' ' ' ' ' ' ' R N           y.y.y.y.y.y.y.y.y.y.y.y.y.y.y.y.y.y.y.y.y.y.y.y.y.y.y.y.y.y.y.t.&.#.",
"' ' ' ' ' ' ' ' ] R N           y.y.y.y.y.y.y.y.y.y.y.y.y.y.y.y.y.y.y.y.y.y.y.y.y.y.y.y.y.y.y.0.%.$.",
"' ' ' ' ' ' ' ' ] R M             y.y.y.y.y.y.y.y.y.y.y.y.y.y.y.y.y.y.y.y.y.y.y.y.y.y.y.y.y.0.=.$.  ",
"' ' ' ' ' ' ' ' ' Y M                                                                               ",
"' ' ' ' ' ' ' ' ] Y M                                                                               ",
"' ' ' ' ' ' ' ' ] R M                                                                               ",
"] ] ] ] ] ] ] ] ' G M                                                                               ",
"R R R R R R R R G B M                                                                               ",
"N N M M M M M M M M N                                                                               "
};
