/* XPM */
static char *_eefb25001c14e4781cce3e1b1e60cbaNZrJb0kj0okmHinq[] = {
/* columns rows colors chars-per-pixel */
"50 50 127 2 ",
"   c None",
".  c #754029",
"X  c #7D472E",
"o  c #844C32",
"O  c #865036",
"+  c #8F5438",
"@  c #8F5539",
"#  c #905539",
"$  c #91563A",
"%  c #92573A",
"&  c #965C3F",
"*  c #B4513F",
"=  c #B5513F",
"-  c #BE5141",
";  c #A16749",
":  c #D55044",
">  c #D55045",
",  c #D65145",
"<  c #D65146",
"1  c #D65246",
"2  c #D75246",
"3  c #D65346",
"4  c #D65347",
"5  c #D75447",
"6  c #D75448",
"7  c #D75548",
"8  c #D8574A",
"9  c #D8584B",
"0  c #D8594C",
"q  c #D95B4D",
"w  c #D95C4E",
"e  c #DA5E4F",
"r  c #DA5F50",
"t  c #DB6051",
"y  c #DB6253",
"u  c #DD6756",
"i  c #DD6857",
"p  c #DD6858",
"a  c #DE6958",
"s  c #DE6A59",
"d  c #DE6B59",
"f  c #DE6C5A",
"g  c #DF6D5B",
"h  c #DF6E5C",
"j  c #E37864",
"k  c #BF8767",
"l  c #CA9271",
"z  c #CB9371",
"x  c #CB9372",
"c  c #CC9573",
"v  c #E6826C",
"b  c #E6836C",
"n  c #E8866D",
"m  c #E88971",
"M  c #EA8F76",
"N  c #EE9A7E",
"B  c #EE9B7F",
"V  c #EF9D80",
"C  c #DAA381",
"Z  c #E0AA86",
"A  c #E5AF8B",
"S  c #E6AF8C",
"D  c #F0A083",
"F  c #F3A98A",
"G  c #F5AF8F",
"H  c #FDB683",
"J  c #FDB684",
"K  c #FDB784",
"L  c #FDB785",
"P  c #FDB786",
"I  c #FDB886",
"U  c #FDB887",
"Y  c #F5B08F",
"T  c #FDB988",
"R  c #FDB989",
"E  c #FDBA8A",
"W  c #FDBB8C",
"Q  c #FDBD8E",
"!  c #FDBD8F",
"~  c #EDB793",
"^  c #F6B190",
"/  c #F6B392",
"(  c #F6B492",
")  c #F7B795",
"_  c #FDBE91",
"`  c #FDBE92",
"'  c #FDBF93",
"]  c #F8B996",
"[  c #F8BA97",
"{  c #F9BA97",
"}  c #F4BE99",
"|  c #F9BB98",
" . c #FABE9B",
".. c #FABF9B",
"X. c #FDC094",
"o. c #FDC095",
"O. c #FDC195",
"+. c #FDC196",
"@. c #FDC197",
"#. c #FDC399",
"$. c #FDC39A",
"%. c #FDC49B",
"&. c #FBC19C",
"*. c #F8C29D",
"=. c #FBC29D",
"-. c #FDC59C",
";. c #FDC59D",
":. c #FDC59E",
">. c #FDC69E",
",. c #FDC69F",
"<. c #FBC5A0",
"1. c #FBC6A0",
"2. c #FDC7A0",
"3. c #FCC7A1",
"4. c #FDC7A1",
"5. c #FDC7A2",
"6. c #FDC8A1",
"7. c #FDC8A2",
"8. c #FDC9A2",
"9. c #FDC8A3",
"0. c #FDC9A3",
"q. c #FEC8A2",
"w. c #FEC9A3",
"e. c #FDCAA3",
"r. c #FECAA4",
"t. c #FFCAA4",
"y. c #FECBA4",
/* pixels */
"                                                                                                    ",
"                                                                                                    ",
"                                        % % # # % @ %                                               ",
"                                        # % % # % % % @ %                                           ",
"                                        ; & # # @ + + + @ +                                         ",
"                                        *.Z c z z z x z x z                                         ",
"                                        7.t.1.} 1.5.} 1.t.t.                                        ",
"                                      7.7.t.C ; A S ; C t.5.t.                                      ",
"                                      7.7.7.Z l ~ ~ k S t.7.7.                                      ",
"                                        7.1.,.7.5.1.7.7.5.7.                                        ",
"                                        7.7.7.X.E E ' 5.7.7.                                        ",
"                                        7.7.7.@.W W @.5.7.7.                                        ",
"                    7 1 5 1 1 1 1 1 y [ 7.7.7.#.7.;.;.;.7.7.| y 1 1 1 1 1 5 1 7                     ",
"                7 1 1 1 1 1 1 1 1 1 7 B e.7.` I E E I ` 7.t.V 5 1 1 1 1 1 1 1 1 1 7                 ",
"              7 1 1 1 1 1 1 1 1 1 1 1 d | e.;.` E E ` ;.7.[ d 1 1 1 1 1 1 1 1 1 1 1 7               ",
"              1 1 1 1 1 1 1 1 1 1 1 1 1 j | 7.7.7.7.7.t.| j 1 1 1 1 1 1 1 1 1 1 1 1 1               ",
"            2 1 1 1 1 1 1 1 1 1 1 1 1 1 1 d N [ =.=.[ V d , 1 1 1 1 1 1 1 1 1 1 1 1 1 4             ",
"            1 1 1 1 1 1 1 1 1 1 1 1 1 1 2 : 1 r f f r 1 , , 1 1 1 1 1 1 1 1 1 1 1 1 1 1             ",
"            1 1 1 1 1 1 1 1 1 1 1 1 1 1 1 1 1 1 , , , 1 1 1 1 1 1 1 1 1 1 1 1 1 1 4 1 1             ",
"          1 1 1 1 1 1 1 1 1 1 1 1 1 1 1 1 1 1 1 1 1 1 1 1 1 1 1 1 1 1 1 1 , , , , , , 1 1           ",
"          1 1 2 1 , , , 1 1 1 1 1 1 1 1 1 1 1 1 1 1 1 1 1 1 1 1 1 1 1 1 8 q q w q q w w w           ",
"          d i a u d d p u 8 1 1 1 1 1 1 1 1 1 1 1 1 1 1 1 1 1 1 1 1 1 , g ^ ( ( / / ( ^             ",
"            &.&.=.=...=.D 8 1 1 1 1 1 1 1 1 1 1 1 1 1 1 1 1 1 1 1 1 1 1 q F t.7.9.t.9.t.            ",
"            7.5.5.5.7.| d , 1 1 1 1 1 1 1 1 1 1 1 1 1 1 1 1 1 1 1 1 1 1 1 d | 7.9.5.5.5.            ",
"            7.7.7.7.7.M 1 1 1 1 1 1 1 1 1 1 1 1 1 1 1 1 1 1 1 1 1 1 1 1 1 1 M 7.7.7.7.7.            ",
"            7.7.7.5.*.h , 1 1 1 1 1 1 1 1 1 1 1 1 1 1 1 1 1 1 1 1 1 1 1 1 , g &.7.7.7.7.            ",
"            7.7.7.t.[ r 1 1 1 1 1 1 1 1 1 1 1 1 1 1 1 1 1 1 1 1 1 1 1 1 1 : w [ t.7.7.7.            ",
"            7.7.5.7.) r , 1 1 1 1 1 1 1 1 1 1 1 1 1 1 1 1 1 1 1 1 1 1 1 1 1 e [ 7.7.7.7.            ",
"            7.7.7.7...u , 1 1 1 1 1 1 1 1 1 1 1 1 1 1 1 1 1 1 1 1 1 1 1 1 1 u *.7.7.7.7.            ",
"            7.7.7.7.7.v , 1 1 1 1 1 1 1 1 1 1 1 1 1 1 1 1 1 1 1 1 1 1 1 1 1 v 7.7.7.7.              ",
"              7.7.7.9.G r , 1 1 1 1 1 1 1 1 1 1 1 1 1 1 1 1 1 1 1 1 1 1 1 w ^ 7.7.7.7.              ",
"              7.5.5.5.5.N 8 1 1 1 1 1 1 1 1 1 1 1 1 1 1 1 1 1 1 1 1 1 1 8 N 7.7.7.7.7.              ",
"              7.7.t.7.7.7.m 1 1 4 4 4 > > > > > > > > > > > 4 > > : : : n #.7.7.#.,.7.              ",
"              7.;.@.;.;.@.      - - - - ; - - - - - * - - - - - ; =       I &.#.I @.7.              ",
"              7.' H #.#.H         O O O o o O O O X X X O O O O O         H X.&.K @.7.              ",
"              t.&.H @.X.H         @ @ @ O # # # & @ @ & @ @ @ @ @         I K I I ;.7.              ",
"              7.;.E H H E         $ $ $ % % % % & @ % % % % % % #         ;.` Q #.7.7.              ",
"                t.;.' @.;.        $ $ $ @ @ %         % % @ @ % #         7.7.7.7.7.                ",
"                  7.7.t.7.        $ $ $ $ $ %         % @ % @ % #                                   ",
"                                  $ $ $ $ $ %         & % @ % @ %                                   ",
"                                    % @ % % %         % % % % %                                     ",
"                                    % % % @ %         % @ @ % %                                     ",
"                                    % % % $ $         % % % % %                                     ",
"                                    % % @ % $         $ % @ # #                                     ",
"                                    X o o o o         o o o o X                                     ",
"                                . . . . . . .         . . . . . . .                                 ",
"                                . . . . . . .         . . . . . . .                                 ",
"                                  . . . . . .         . . . . . .                                   ",
"                                                                                                    ",
"                                                                                                    "
};
