/* XPM */
static char *_d68914e18e04446c8d6de50efd89b40j3cJAlCplt2FmqBf[] = {
/* columns rows colors chars-per-pixel */
"50 50 97 2 ",
"   c None",
".  c #254A23",
"X  c #264B23",
"o  c #264B24",
"O  c #274C24",
"+  c #284D25",
"@  c #2B5026",
"#  c #2B5126",
"$  c #315629",
"%  c #315729",
"&  c #395F2E",
"*  c #3C622F",
"=  c #3C632F",
"-  c #3F6531",
";  c #406631",
":  c #486F36",
">  c #4A7137",
",  c #4B7137",
"<  c #4B7237",
"1  c #5A823F",
"2  c #608842",
"3  c #658E45",
"4  c #6B9448",
"5  c #719A4B",
"6  c #719A4C",
"7  c #719B4C",
"8  c #729B4C",
"9  c #81AB54",
"0  c #81AC54",
"q  c #82AC54",
"w  c #82AC55",
"e  c #90BB5C",
"r  c #94BF5E",
"t  c #96C15F",
"y  c #97C25F",
"u  c #97C260",
"i  c #97C360",
"p  c #A0CC64",
"a  c #A2CE64",
"s  c #A2CF65",
"d  c #A3CF65",
"f  c #A3CF66",
"g  c #A4D066",
"h  c #A5D167",
"j  c #A5D069",
"k  c #A5D06A",
"l  c #A6D06B",
"z  c #A6D16C",
"x  c #A7D16C",
"c  c #A8D16E",
"v  c #A8D26E",
"b  c #A9D270",
"n  c #A9D271",
"m  c #ABD373",
"M  c #ABD374",
"N  c #ACD374",
"B  c #ADD477",
"V  c #AFD57A",
"C  c #B0D67B",
"Z  c #B2D77F",
"A  c #B3D780",
"S  c #B5D884",
"D  c #B5D984",
"F  c #B5D985",
"G  c #B6D985",
"H  c #B6D986",
"J  c #BBDC8E",
"K  c #BCDC8F",
"L  c #BCDC90",
"P  c #BDDC90",
"I  c #BDDC91",
"U  c #D1E7B2",
"Y  c #D1E7B3",
"T  c #D2E8B4",
"R  c #D3E8B6",
"E  c #E0EFCB",
"W  c #E1EFCD",
"Q  c #E1F0CE",
"!  c #E2F0CE",
"~  c #E2F0CF",
"^  c #EBF5DE",
"/  c #EBF5DF",
"(  c #ECF5E0",
")  c #EDF5E1",
"_  c #EEF6E3",
"`  c #EEF6E4",
"'  c #EFF6E4",
"]  c #EFF7E4",
"[  c #EFF7E5",
"{  c #F0F7E6",
"}  c #F2F8E9",
"|  c #F4F9EC",
" . c #F4F9ED",
".. c #F5FAEE",
"X. c #FAFCF6",
"o. c #FAFDF7",
"O. c white",
/* pixels */
"                                                                                                    ",
"                                                                                                    ",
"                                                                                                    ",
"                                          X + + + X + X +                                           ",
"                                    o O X X X X X X X O X X X X                                     ",
"                              O O X X # & > 1 3 4 4 3 1 > * # X X O O                               ",
"                          O O X + * 2 w y i h h g j h g i i 9 2 * + X O O                           ",
"                        O O O - 6 y g g f f j g g g g g j g g g i 8 - O O O                         ",
"                      O X $ 3 i g g f f f f f f g g f f f f f f g g i 3 $ O X                       ",
"                    O X ; w g g f f f f f f f f f f f f f f f f f f g g w - X X                     ",
"                  O X : e g f f f f f f f f f f f f f f f f f f f f f f g e : X O                   ",
"                O X : r g f f f f f f f f f f f Z Z f f f f f f f f f f g j t : X O                 ",
"              O X - e j g g f f f f f f f f f j Q Q g f f f a g f f f f f f j e - X O               ",
"            O o $ w g f f f f f f z Y J f f f n } } M f f f J U z f f f f g g g w $ O O             ",
"            O O 3 f f f f f f f f z / ..F f f B  . .B f f F  ./ z f f f f f f f g 3 O O             ",
"          O X ; i g f f f f f f f f Y O.W j f n ` ` b f j W O.Y f f f f f f f f g i - X O           ",
"          X # 8 g f f f f g g g f f V ` X.F g f Y T f a F X.` V f f f g g f f f f g 8 O O           ",
"          X = y g f f f f z z g f f g K ) J a g z z f f J / L g f f a z j f f f f g i - X           ",
"        O X 2 g g f f f f Y ^ Y V f f f n z f f g f f f z n f f f C Y / Y f f f h h g 2 X O         ",
"        O # w h f f f f f J ..O.[ L f f a f f f f f f f g f f f L { O. .J g f f g h v 8 # O         ",
"        X & y h f f f f f i H Q X.) B f f f f f f f f f f f f n ) X.E S f f f f g g h y * X         ",
"      O X > i j f f f f f f h h F J j f f f f f f f f f f f g z J S j f f f f f g g h i > X O       ",
"      O X 1 g f f f f f f f a f a a f f f f f f f f f f f f f f a a f f f f f f g f f g 1 . O       ",
"      O X 3 g f f f f f g b B B j f f f f f f f f f f f f f f f f j M N v f f f g g f g 3 X O       ",
"      O X 4 g g f f f z T [  .} ! Z f f f f f f f f f f f f f f Z Q }  .` T v f f f g g 4 X +       ",
"      O X 4 j g f f f j T `  .} ! D i f f f f f f f f f f f f f Z Q }  .{ T z f f f g j 4 X X       ",
"      O X 3 g g f f f f j v V n h h f f f f f f f f f f f f f f f g M N n f f f f f f g 3 X X       ",
"      O . 1 g g f f f f f f f a g g f f f f f f f f f f f f f f a a f f f f f f f f f f 1 X +       ",
"      + . > i h f f f f f g g j A J j g f f f f f f f f f f f z J F j f f f f f f f f f > X o       ",
"        X & i h f f f f f g A Q X.) B g f f f f f f f f f f f M ) X.E F f f f f f f f r & X         ",
"        + # w g f f f f f J ..O.} I g s f f f f f f f f f g f f L { O.} J f f f f f g w # o         ",
"        X O 2 g f f f f f U / T C h i g M z f f f f f g j n f f f C T / Y f f f f f g 2 X O         ",
"          X = i g f f f f z v f f f f J ( L a f j z g f L ) J f f f f z z f f f f g y * X           ",
"          O + 8 g f f f f f f f f f V ) X.F a f T T f f F o.` C f f f g f f f f g g 6 + O           ",
"          O X - i g f f f f f f f f Y O.Q j f n ` ` z f j W O.U f f f f f f f f g i ; X O           ",
"            O O 3 g f f f f f f f v / ..F f f B .. .N f f F  ./ z f f f f f f g f 3 O O             ",
"            O O % w g g f f f f f j T J f f f N } } M f f f J U z f f f f f f j w $ O O             ",
"              O X ; e j f f f f f f f f f f f j Q W j f f f f f f f f f f f g e - X O               ",
"                + X : e g g f f f f f f f f f f A A f f f f f f f f f f f g y : X O                 ",
"                  X X > e g f f f f f f f f f f f f f f f f f f f f f f g e : X O                   ",
"                    O X - w g g g f f f f f f f f f g g f f f f f g g f w - X O                     ",
"                      + X $ 3 y g f f f f f f f f f g g f f f f g g i 3 $ X O                       ",
"                        O O O - 5 y g g g f f f f f j g f g g g i 6 ; O X O                         ",
"                          O O X o - 2 9 i p f g j g h h i i 9 2 - + X O O                           ",
"                              O O X X # & > 1 3 4 4 3 1 > & # X X O O                               ",
"                                    o O X X X X X X X X X X O O                                     ",
"                                          O O O O O X O O                                           ",
"                                                                                                    ",
"                                                                                                    ",
"                                                                                                    "
};
